/* XPM */
static char * debug_collectible_xpm[] = {
"50 50 105 2",
"  	c #EA00FF",
". 	c #ED5BED",
"+ 	c #F395C7",
"@ 	c #F9B996",
"# 	c #FBC776",
"$ 	c #FDD056",
"% 	c #FFD726",
"& 	c #FED347",
"* 	c #FCCB69",
"= 	c #F9BA94",
"- 	c #F49AC2",
"; 	c #EE61EB",
"> 	c #EF6CE5",
", 	c #FABE8A",
"' 	c #FFD900",
") 	c #FABE8B",
"! 	c #F079DE",
"~ 	c #EA1CFD",
"{ 	c #F7ADAA",
"] 	c #F8B2A2",
"^ 	c #EC3DF7",
"/ 	c #EB3AF8",
"( 	c #FABD8C",
"_ 	c #FCCA6C",
": 	c #F5A1B9",
"< 	c #EF73E2",
"[ 	c #ED52F1",
"} 	c #EB2EFB",
"| 	c #EB3AF7",
"1 	c #EE60EB",
"2 	c #F288D3",
"3 	c #F9B799",
"4 	c #FED632",
"5 	c #F49BC0",
"6 	c #EA0DFF",
"7 	c #F9B994",
"8 	c #FED440",
"9 	c #F391CB",
"0 	c #EA1CFE",
"a 	c #EC44F6",
"b 	c #F6AAAD",
"c 	c #FFD90D",
"d 	c #F499C3",
"e 	c #FDD151",
"f 	c #EE67E7",
"g 	c #F075DF",
"h 	c #FED24D",
"i 	c #EC46F5",
"j 	c #F074E0",
"k 	c #ED5AEE",
"l 	c #F288D1",
"m 	c #F5A0B9",
"n 	c #F7ADA9",
"o 	c #FAC183",
"p 	c #F497C5",
"q 	c #F5A5B6",
"r 	c #F8B3A1",
"s 	c #F183D6",
"t 	c #F9BD90",
"u 	c #EF6BE6",
"v 	c #FBC47E",
"w 	c #FCC96E",
"x 	c #EC4DF3",
"y 	c #FBC47D",
"z 	c #F9BB8F",
"A 	c #EF6AE6",
"B 	c #F497C4",
"C 	c #F5A3B6",
"D 	c #EE69E7",
"E 	c #FAC184",
"F 	c #FED24B",
"G 	c #F7ABAA",
"H 	c #EC49F5",
"I 	c #FED62E",
"J 	c #EF74E1",
"K 	c #ED58EE",
"L 	c #F499C2",
"M 	c #FDD055",
"N 	c #EE66E9",
"O 	c #FDD14F",
"P 	c #F9BB92",
"Q 	c #FED345",
"R 	c #F38ECD",
"S 	c #EC40F6",
"T 	c #F6A8AF",
"U 	c #FFD816",
"V 	c #EB3DF8",
"W 	c #F5A1BA",
"X 	c #EF70E3",
"Y 	c #EC4FF2",
"Z 	c #EB2AFB",
"` 	c #EE60EC",
" .	c #F186D4",
"..	c #F8B69B",
"+.	c #FED438",
"@.	c #F7B0A7",
"#.	c #F8B1A3",
"$.	c #EF6EE4",
"%.	c #FABE88",
"&.	c #FABD8E",
"*.	c #ED5DED",
"=.	c #F395C6",
"-.	c #FCC873",
";.	c #F9B895",
">.	c #F498C4",
"                                                                                                    ",
"                                                                                                    ",
"                                                                                                    ",
"                                                                                                    ",
"                                                                                                    ",
"                                                                                                    ",
"                                                                                                    ",
"                                                                                                    ",
"                                        . + @ # $ % & * = - ;                                       ",
"                                    > , ' ' ' ' ' ' ' ' ' ' ' ) !                                   ",
"                                ~ { ' ' ' ' ' ' ' ' ' ' ' ' ' ' ' ] ^                               ",
"                              / ( ' ' ' ' _ : < [ } | 1 2 3 4 ' ' ' 5                               ",
"                            6 7 ' ' ' 8 9 0                 a b c ' 5                               ",
"                            d ' ' ' e f                         g h 5                               ",
"                          i 4 ' ' c j                             k l                               ",
"                          m ' ' ' n                                                                 ",
"                        0 h ' ' ' .                                                                 ",
"                        f ' ' ' o                                                                   ",
"                        p ' ' ' q                                                                   ",
"                        r ' ' ' s                                                                   ",
"                        t ' ' ' u                                                                   ",
"                        v ' ' ' .                                                                   ",
"                        w ' ' ' x                                                                   ",
"                        y ' ' ' k                                                                   ",
"                        z ' ' ' A                                                                   ",
"                        r ' ' ' s                                                                   ",
"                        B ' ' ' C                                                                   ",
"                        D ' ' ' E                                                                   ",
"                        0 F ' ' ' k                                                                 ",
"                          : ' ' ' G                                                                 ",
"                          H I ' ' c J                             K l                               ",
"                            L ' ' ' M N                         j O 5                               ",
"                            6 P ' ' ' Q R 0                 S T U ' 5                               ",
"                              V , ' ' ' ' w W X Y Z / `  ...+.' ' ' 5                               ",
"                                ~ @.' ' ' ' ' ' ' ' ' ' ' ' ' ' ' #.^                               ",
"                                    $.%.' ' ' ' ' ' ' ' ' ' ' &.j                                   ",
"                                        *.=.7 -.M % & * ;.>.*.                                      ",
"                                                                                                    ",
"                                                                                                    ",
"                                                                                                    ",
"                                                                                                    ",
"                                                                                                    ",
"                                                                                                    ",
"                                                                                                    ",
"                                                                                                    ",
"                                                                                                    ",
"                                                                                                    ",
"                                                                                                    ",
"                                                                                                    ",
"                                                                                                    "};
