/* XPM */
static char * debug_exit_xpm[] = {
"50 50 7 1",
" 	c #EA00FF",
".	c #90D4AC",
"+	c #00FF5E",
"@	c #E822FD",
"#	c #8AD8A7",
"$	c #ABBCC4",
"%	c #C698DD",
"                                                  ",
"                                                  ",
"                                                  ",
"                                                  ",
"                                                  ",
"                                                  ",
"                                                  ",
"                                                  ",
"                                                  ",
"                                                  ",
"                                                  ",
"                                                  ",
"                                                  ",
"                                                  ",
"                 .+++++++++++++++@                ",
"                 .+++++++++++++++@                ",
"                 .+++++++++++++++@                ",
"                 .++#                             ",
"                 .++#                             ",
"                 .++#                             ",
"                 .++#                             ",
"                 .++#                             ",
"                 .++#                             ",
"                 .++#                             ",
"                 .++++++++++++++$                 ",
"                 .++++++++++++++$                 ",
"                 .++++++++++++++$                 ",
"                 .++#                             ",
"                 .++#                             ",
"                 .++#                             ",
"                 .++#                             ",
"                 .++#                             ",
"                 .++#                             ",
"                 .++#                             ",
"                 .++#                             ",
"                 .++#                             ",
"                 .+++++++++++++++%                ",
"                 .+++++++++++++++%                ",
"                 .+++++++++++++++%                ",
"                                                  ",
"                                                  ",
"                                                  ",
"                                                  ",
"                                                  ",
"                                                  ",
"                                                  ",
"                                                  ",
"                                                  ",
"                                                  ",
"                                                  "};
