/* XPM */
static char * debug_wall_bis_lol_xpm[] = {
"50 50 2 1",
" 	c #000000",
".	c #FFFF00",
"         ..........          ..........          .",
"        ..........          ..........          ..",
"       ..........          ..........          ...",
"      ..........          ..........          ....",
"     ..........          ..........          .....",
"    ..........          ..........          ......",
"   ..........          ..........          .......",
"  ..........          ..........          ........",
" ..........          ..........          .........",
"..........          ..........          ..........",
".........          ..........          .......... ",
"........          ..........          ..........  ",
".......          ..........          ..........   ",
"......          ..........          ..........    ",
".....          ..........          ..........     ",
"....          ..........          ..........      ",
"...          ..........          ..........       ",
"..          ..........          ..........        ",
".          ..........          ..........         ",
"          ..........          ..........          ",
"         ..........          ..........          .",
"        ..........          ..........          ..",
"       ..........          ..........          ...",
"      ..........          ..........          ....",
"     ..........          ..........          .....",
"    ..........          ..........          ......",
"   ..........          ..........          .......",
"  ..........          ..........          ........",
" ..........          ..........          .........",
"..........          ..........          ..........",
".........          ..........          .......... ",
"........          ..........          ..........  ",
".......          ..........          ..........   ",
"......          ..........          ..........    ",
".....          ..........          ..........     ",
"....          ..........          ..........      ",
"...          ..........          ..........       ",
"..          ..........          ..........        ",
".          ..........          ..........         ",
"          ..........          ..........          ",
"         ..........          ..........          .",
"        ..........          ..........          ..",
"       ..........          ..........          ...",
"      ..........          ..........          ....",
"     ..........          ..........          .....",
"    ..........          ..........          ......",
"   ..........          ..........          .......",
"  ..........          ..........          ........",
" ..........          ..........          .........",
"..........          ..........          .........."};
