/* XPM */
static char * debug_player_xpm[] = {
"50 50 53 1",
" 	c #EA00FF",
".	c #7534FF",
"+	c #003BFF",
"@	c #353AFF",
"#	c #5338FF",
"$	c #7334FF",
"%	c #9D2DFF",
"&	c #C221FF",
"*	c #E706FF",
"=	c #4A38FF",
"-	c #B425FF",
";	c #8132FF",
">	c #E605FF",
",	c #B028FF",
"'	c #E406FF",
")	c #D516FF",
"!	c #AD28FF",
"~	c #4439FF",
"{	c #8C30FF",
"]	c #E00EFF",
"^	c #6F35FF",
"/	c #C61EFF",
"(	c #DE11FF",
"_	c #3C39FF",
":	c #7435FF",
"<	c #A52BFF",
"[	c #0B3BFF",
"}	c #E209FF",
"|	c #CF1AFF",
"1	c #C91DFF",
"2	c #E10CFF",
"3	c #BE22FF",
"4	c #E705FF",
"5	c #B625FF",
"6	c #CE1CFF",
"7	c #DF0EFF",
"8	c #3E3AFF",
"9	c #E00BFF",
"0	c #7135FF",
"a	c #C520FF",
"b	c #E507FF",
"c	c #AE27FF",
"d	c #4839FF",
"e	c #8931FF",
"f	c #7E33FF",
"g	c #E604FF",
"h	c #4639FF",
"i	c #B227FF",
"j	c #E900FF",
"k	c #323AFF",
"l	c #5038FF",
"m	c #9C2DFF",
"n	c #C122FF",
"                                                  ",
"                                                  ",
"                                                  ",
"                                                  ",
"                                                  ",
"                                                  ",
"                                                  ",
"                                                  ",
"                                                  ",
"                                                  ",
"                                                  ",
"                                                  ",
"                  .+++++++++@#$%&*                ",
"                  .++++++++++++++=-               ",
"                  .++++++++++++++++;>             ",
"                  .+++,     ')!~++++{             ",
"                  .+++,        ]^++++/            ",
"                  .+++,         (_+++:            ",
"                  .+++,          <+++[}           ",
"                  .+++,          |++++1           ",
"                  .+++,          2++++3           ",
"                  .+++,          4++++5           ",
"                  .+++,          2++++3           ",
"                  .+++,          6++++1           ",
"                  .+++,          <+++[}           ",
"                  .+++,         78+++:            ",
"                  .+++,        90++++a            ",
"                  .+++,     b)cd++++e             ",
"                  .++++++++++++++++fg             ",
"                  .++++++++++++++hij              ",
"                  .+++++++++kl0mn*                ",
"                  .+++,                           ",
"                  .+++,                           ",
"                  .+++,                           ",
"                  .+++,                           ",
"                  .+++,                           ",
"                  .+++,                           ",
"                  .+++,                           ",
"                  .+++,                           ",
"                  .+++,                           ",
"                  .+++,                           ",
"                  .+++,                           ",
"                  .+++,                           ",
"                                                  ",
"                                                  ",
"                                                  ",
"                                                  ",
"                                                  ",
"                                                  ",
"                                                  "};
